PathFileType	4	(X/Y/Z)	Walk10.trc
DataRate	CameraRate	NumFrames	NumMarkers	Units	OrigDataRate	OrigDataStartFrame	OrigNumFrames
200.000000	200.000000	4	57	mm	200.000000	586	868
Frame#	Times		RCAR		LMT5		RFHD		LTB3		RUA1		LTB2		RASI		LTB4		RElbow		RFA1		LACR1		LLFC		LUA1		LTH1		STRN		RACR1		RTH4		LToe		RTH3		RWRU		LCAR		RBHD		LASI		LTH3		LFHD		RLFC		CLAV		RBack		RTH2		C7		LTH4		LTH2		LElbow		RTB3		RTH1		LWRR		RTB4		RMT1		LFA1		LPSI		RLMAL		LWRU		LTB1		RPSI		RTB1		RTB2		LElbowM		RWRR		LBHD		LMT1		T10		RCAL		RMMAL		LMMAL		LLMAL		LCAL		RElbowM
			X1	Y1	Z1	X2	Y2	Z2	X3	Y3	Z3	X4	Y4	Z4	X5	Y5	Z5	X6	Y6	Z6	X7	Y7	Z7	X8	Y8	Z8	X9	Y9	Z9	X10	Y10	Z10	X11	Y11	Z11	X12	Y12	Z12	X13	Y13	Z13	X14	Y14	Z14	X15	Y15	Z15	X16	Y16	Z16	X17	Y17	Z17	X18	Y18	Z18	X19	Y19	Z19	X20	Y20	Z20	X21	Y21	Z21	X22	Y22	Z22	X23	Y23	Z23	X24	Y24	Z24	X25	Y25	Z25	X26	Y26	Z26	X27	Y27	Z27	X28	Y28	Z28	X29	Y29	Z29	X30	Y30	Z30	X31	Y31	Z31	X32	Y32	Z32	X33	Y33	Z33	X34	Y34	Z34	X35	Y35	Z35	X36	Y36	Z36	X37	Y37	Z37	X38	Y38	Z38	X39	Y39	Z39	X40	Y40	Z40	X41	Y41	Z41	X42	Y42	Z42	X43	Y43	Z43	X44	Y44	Z44	X45	Y45	Z45	X46	Y46	Z46	X47	Y47	Z47	X48	Y48	Z48	X49	Y49	Z49	X50	Y50	Z50	X51	Y51	Z51	X52	Y52	Z52	X53	Y53	Z53	X54	Y54	Z54	X55	Y55	Z55	X56	Y56	Z56	X57	Y57	Z57

586	2.93	-288.69	773.78	275.36	-179.92	23.983	-105.67	-218.17	1582.7	11.971	-217.59	166.73	-65.525	-355.02	1184.1	220.26	-225.21	252.39	-122.89	-251.9	956.73	129.29	-208.2	251.87	-63.833	-404.16	1063.9	249.82	-389.19	916.4	264.84	-337.34	1367.2	-185.19	-244.15	478.22	-148.71	-360.98	1188.8	-280.62	-295.81	755.51	-243.25	-220.02	1226.2	-27.622	-344.18	1364.8	124.77	-318.26	633.65	164.39	-79.811	24.628	-54.163	-317.21	550.47	151.23	-356.95	810.43	269.03	-368.89	769.3	-346.07	-372.85	1544.5	43.309	-218.05	962.13	-157.64	-266.51	596.27	-185.98	-227.69	1580.3	-82.487	-326.95	464.58	134.51	-278.23	1329.1	-29.427	-470.37	1315.7	81.196	-262.84	639.82	146.41	-415.26	1410.5	-24.534	-282.32	677.98	-210.48	-226.72	694.22	-198.38	-416.66	1071.7	-311.79	-537.32	227.07	64.415	-317.75	719.88	181.95	-371.67	816.44	-303.28	-462.44	269.36	67.149	-640.38	77.12	13.633	-427.95	936.73	-336.93	-479.74	958.85	-81.928	-656.48	195.6	85.521	-420.23	822.06	-355.13	-197	337.96	-64.978	-486.97	955.41	7.9883	-386.76	313.33	74.843	-478.46	294.48	122.23	-447.04	1044.2	-238.16	-302.65	824.9	225.15	-381.76	1533.9	-96.878	-148.48	29.444	-26.732	-491.88	1144.7	-32.793	-709.24	236.5	42.98	-635.64	188.41	4.41	-250.19	62.771	-7.554	-264.3	59.267	-92.011	-327.66	30.513	-56.142	-418.45	1034	155.72
587	2.935	-285.7	773.38	273.87	-179.94	23.983	-105.7	-211.9	1583.5	11.542	-217.19	166.57	-65.499	-349.66	1184.8	220.19	-224.37	252.22	-122.96	-246.65	957.46	129.71	-207.47	251.67	-63.878	-399.04	1064.7	249.59	-384.94	917.09	264.57	-331.27	1368.1	-185.11	-241.92	478.2	-148.89	-353.56	1189.7	-280.65	-290.84	756.03	-243.41	-214.18	1227	-27.476	-338.51	1365.5	124.91	-309.99	634.92	164.7	-79.846	24.632	-54.162	-307.65	551.69	151.65	-353.59	811	268.87	-355.65	770.6	-345.49	-366.66	1545.6	42.984	-212.31	962.57	-157.5	-262.82	596.57	-186.16	-221.43	1580.9	-82.906	-315.63	465.88	134.94	-272.39	1330	-29.366	-464.65	1316.4	80.903	-254.39	641.74	147.4	-409.31	1411.4	-24.529	-278	678.43	-210.66	-222.37	694.24	-198.18	-408.36	1072.3	-312.28	-524.01	228.33	65.113	-310.92	721.19	181.97	-359.25	817.71	-302.78	-448.94	270.64	67.982	-625.23	78.1	15.077	-417.68	936.95	-337.16	-473.93	959.88	-82.52	-643.19	196.56	85.864	-408.05	822.26	-354.83	-195.93	337.7	-65.056	-481.28	956.39	7.3901	-373.57	314.71	75.585	-465.44	296.01	122.7	-439.24	1044.5	-238.93	-299.99	824.84	224.11	-375.57	1534.7	-97.189	-148.52	29.412	-26.742	-486.04	1145.7	-33.164	-696.71	236.56	43.288	-622.23	189.34	4.7608	-250.22	62.768	-7.5577	-264.29	59.252	-91.993	-327.71	30.532	-56.169	-413.72	1034.9	155.69
588	2.94	-282.71	773	272.41	-179.96	23.982	-105.73	-205.64	1584.3	11.137	-216.8	166.42	-65.515	-344.36	1185.4	220.14	-223.61	252.05	-123.05	-241.4	958.19	130.13	-206.75	251.47	-63.964	-393.92	1065.4	249.37	-380.69	917.76	264.32	-325.23	1369	-185.01	-239.75	478.19	-149.05	-346.17	1190.6	-280.66	-285.91	756.52	-243.57	-208.36	1227.7	-27.292	-332.86	1366.3	125.08	-301.88	636.22	165.02	-79.873	24.626	-54.169	-298.22	552.97	152.07	-350.21	811.56	268.72	-342.37	772.01	-344.88	-360.47	1546.6	42.692	-206.59	962.94	-157.35	-259.2	596.85	-186.31	-215.18	1581.4	-83.3	-304.34	467.29	135.36	-266.55	1330.8	-29.294	-458.95	1317	80.621	-246.09	643.7	148.45	-403.36	1412.3	-24.499	-273.72	678.84	-210.82	-218.06	694.23	-197.97	-400.08	1072.9	-312.74	-510.51	229.46	65.815	-304.24	722.49	182.07	-346.8	819.07	-302.24	-435.34	271.89	68.773	-609.57	78.849	16.565	-407.4	937.21	-337.36	-468.16	960.9	-83.089	-629.66	197.22	86.149	-395.84	822.54	-354.47	-194.88	337.45	-65.183	-475.6	957.39	6.8134	-360.33	316.15	76.27	-452.33	297.51	123.14	-431.46	1044.9	-239.68	-297.32	824.77	223.11	-369.4	1535.4	-97.469	-148.55	29.376	-26.754	-480.22	1146.6	-33.549	-684	236.17	43.502	-608.54	189.97	5.0778	-250.23	62.767	-7.559	-264.28	59.242	-91.974	-327.75	30.556	-56.189	-409.06	1035.7	155.66
589	2.945	-279.72	772.62	271.01	-179.97	23.981	-105.76	-199.39	1585	10.756	-216.44	166.27	-65.571	-339.1	1185.9	220.11	-222.92	251.9	-123.16	-236.15	958.95	130.54	-206.04	251.28	-64.085	-388.82	1066	249.16	-376.44	918.41	264.1	-319.23	1369.9	-184.9	-237.67	478.17	-149.2	-338.82	1191.5	-280.66	-281	756.97	-243.71	-202.57	1228.4	-27.068	-327.2	1367	125.26	-293.9	637.54	165.35	-79.891	24.611	-54.184	-288.9	554.29	152.5	-346.81	812.1	268.59	-329.05	773.54	-344.25	-354.29	1547.7	42.434	-200.87	963.23	-157.19	-255.63	597.11	-186.44	-208.95	1582	-83.67	-293.09	468.8	135.79	-260.71	1331.6	-29.214	-453.25	1317.6	80.349	-237.92	645.7	149.56	-397.42	1413.1	-24.449	-269.49	679.23	-210.95	-213.81	694.19	-197.74	-391.82	1073.5	-313.18	-496.84	230.44	66.508	-297.69	723.76	182.24	-334.34	820.51	-301.66	-421.65	273.07	69.51	-593.43	79.372	18.09	-397.1	937.5	-337.51	-462.41	961.91	-83.628	-615.9	197.56	86.376	-383.59	822.88	-354.06	-193.84	337.21	-65.351	-469.92	958.41	6.2644	-347.03	317.63	76.896	-439.13	298.94	123.56	-423.68	1045.3	-240.41	-294.64	824.72	222.13	-363.25	1536.2	-97.719	-148.58	29.338	-26.765	-474.42	1147.5	-33.949	-671.11	235.34	43.621	-594.57	190.29	5.3607	-250.23	62.767	-7.5563	-264.27	59.237	-91.952	-327.79	30.586	-56.201	-404.45	1036.5	155.61
